<svg width="22" height="25" viewBox="0 0 22 25" fill="none" xmlns="http://www.w3.org/2000/svg">
<path d="M10.9999 0C5.40839 0 0.859375 4.06162 0.859375 9.054C0.859375 15.2497 9.93417 24.3454 10.3205 24.7295C10.6834 25.0904 11.317 25.0898 11.6793 24.7295C12.0657 24.3454 21.1405 15.2497 21.1405 9.054C21.1403 4.06162 16.5914 0 10.9999 0ZM10.9999 22.936C7.94578 19.6968 2.6855 13.3063 2.6855 9.0541C2.6855 4.96064 6.4153 1.63047 10.9999 1.63047C15.5845 1.63047 19.3143 4.96065 19.3143 9.05405C19.3143 13.3064 14.0548 19.6958 10.9999 22.936Z" fill="#ABB4C0"/>
<path d="M11.0003 4.49878C8.1871 4.49878 5.89844 6.54229 5.89844 9.0541C5.89844 11.5659 8.18716 13.6094 11.0003 13.6094C13.8135 13.6094 16.1022 11.5659 16.1022 9.0541C16.1022 6.54229 13.8135 4.49878 11.0003 4.49878ZM11.0003 11.979C9.19401 11.979 7.72456 10.6669 7.72456 9.0541C7.72456 7.44131 9.19406 6.12925 11.0003 6.12925C12.8066 6.12925 14.2761 7.44131 14.2761 9.0541C14.2761 10.6669 12.8066 11.979 11.0003 11.979Z" fill="#ABB4C0"/>
</svg>
