<svg width="20" height="18" viewBox="0 0 20 18" fill="none" xmlns="http://www.w3.org/2000/svg">
<path d="M1.12422 10.5681L1.093 10.5613H14.4761L10.2689 14.7777C10.0629 14.9836 9.94991 15.2624 9.94991 15.5551C9.94991 15.8478 10.0629 16.1247 10.2689 16.331L10.9236 16.986C11.1294 17.1918 11.4037 17.3057 11.6963 17.3057C11.9889 17.3057 12.2634 17.1927 12.4693 16.9868L19.6811 9.77558C19.8878 9.56892 20.0008 9.29363 20 9.00079C20.0008 8.70631 19.8878 8.43087 19.6811 8.22452L12.4693 1.01266C12.2634 0.806965 11.9891 0.693794 11.6963 0.693794C11.4037 0.693794 11.1294 0.807127 10.9236 1.01266L10.2689 1.66762C10.0629 1.87314 9.94991 2.14761 9.94991 2.4403C9.94991 2.73282 10.0629 2.99282 10.2689 3.19851L14.5236 7.43851H1.10926C0.5065 7.43851 -4.21715e-06 7.95802 -4.21715e-06 8.56046V9.4868C-4.21715e-06 10.0892 0.521459 10.5681 1.12422 10.5681Z" fill="white"/>
</svg>
